<svg viewBox="0 0 70 70" fill="black" xmlns="http://www.w3.org/2000/svg">
    <g>
        <path d="M37,31.1V55.47H32.23V29.4Z"></path>
        <path
            d="M18.66,28.95c-.17-6.33,3.17-9.61,7.52-9.61,2.66,0,4.69.85,9,2.88,3.17,1.53,5.48,2.66,7.86,2.66s3.34-1.87,3.39-5.32h3.79c.34,7.07-3.28,9.61-7.24,9.61-2.54,0-4.81-.74-9.16-2.77-3-1.47-5.32-2.77-7.58-2.77s-3.68,1.58-3.73,5.43H18.66Z"
        ></path>
        <path
            d="M35,70A35,35,0,1,1,70,35,35,35,0,0,1,35,70ZM35,2.26A32.74,32.74,0,1,0,67.74,35,32.78,32.78,0,0,0,35,2.26Z"
        ></path>
    </g>
</svg>